<svg viewBox="0 0 330 200" xmlns="http://www.w3.org/2000/svg"><g><g><g><g><g><line x1="41.171875" y1="177" x2="36.171875" y2="177" style="visibility: inherit;" fill="rgb(0, 0, 0)" stroke="rgb(204, 204, 204)" stroke-width="1px"></line><line x1="41.171875" y1="164.35714285714286" x2="36.171875" y2="164.35714285714286" style="visibility: inherit;" fill="rgb(0, 0, 0)" stroke="rgb(204, 204, 204)" stroke-width="1px"></line><line x1="41.171875" y1="151.71428571428572" x2="36.171875" y2="151.71428571428572" style="visibility: inherit;" fill="rgb(0, 0, 0)" stroke="rgb(204, 204, 204)" stroke-width="1px"></line><line x1="41.171875" y1="139.07142857142856" x2="36.171875" y2="139.07142857142856" style="visibility: inherit;" fill="rgb(0, 0, 0)" stroke="rgb(204, 204, 204)" stroke-width="1px"></line><line x1="41.171875" y1="126.42857142857143" x2="36.171875" y2="126.42857142857143" style="visibility: inherit;" fill="rgb(0, 0, 0)" stroke="rgb(204, 204, 204)" stroke-width="1px"></line><line x1="41.171875" y1="113.78571428571428" x2="36.171875" y2="113.78571428571428" style="visibility: inherit;" fill="rgb(0, 0, 0)" stroke="rgb(204, 204, 204)" stroke-width="1px"></line><line x1="41.171875" y1="101.14285714285714" x2="36.171875" y2="101.14285714285714" style="visibility: inherit;" fill="rgb(0, 0, 0)" stroke="rgb(204, 204, 204)" stroke-width="1px"></line><line x1="41.171875" y1="88.5" x2="36.171875" y2="88.5" style="visibility: inherit;" fill="rgb(0, 0, 0)" stroke="rgb(204, 204, 204)" stroke-width="1px"></line><line x1="41.171875" y1="75.85714285714286" x2="36.171875" y2="75.85714285714286" style="visibility: inherit;" fill="rgb(0, 0, 0)" stroke="rgb(204, 204, 204)" stroke-width="1px"></line><line x1="41.171875" y1="63.21428571428571" x2="36.171875" y2="63.21428571428571" style="visibility: inherit;" fill="rgb(0, 0, 0)" stroke="rgb(204, 204, 204)" stroke-width="1px"></line><line x1="41.171875" y1="50.57142857142857" x2="36.171875" y2="50.57142857142857" style="visibility: inherit;" fill="rgb(0, 0, 0)" stroke="rgb(204, 204, 204)" stroke-width="1px"></line><line x1="41.171875" y1="37.92857142857143" x2="36.171875" y2="37.92857142857143" style="visibility: inherit;" fill="rgb(0, 0, 0)" stroke="rgb(204, 204, 204)" stroke-width="1px"></line><line x1="41.171875" y1="25.285714285714295" x2="36.171875" y2="25.285714285714295" style="visibility: inherit;" fill="rgb(0, 0, 0)" stroke="rgb(204, 204, 204)" stroke-width="1px"></line><line x1="41.171875" y1="12.642857142857137" x2="36.171875" y2="12.642857142857137" style="visibility: inherit;" fill="rgb(0, 0, 0)" stroke="rgb(204, 204, 204)" stroke-width="1px"></line><line x1="41.171875" y1="0" x2="36.171875" y2="0" style="visibility: inherit;" fill="rgb(0, 0, 0)" stroke="rgb(204, 204, 204)" stroke-width="1px"></line></g><g transform="translate(31.171875, 0)"><text x="0" y="177" dx="0em" dy="0.3em" style="text-anchor: end; visibility: hidden; font-family: Roboto, sans-serif; font-size: 12px; font-weight: 200;" fill="rgb(255, 255, 255)" stroke="none" stroke-width="1px">-20</text><text x="0" y="164.35714285714286" dx="0em" dy="0.3em" style="text-anchor: end; visibility: inherit; font-family: Roboto, sans-serif; font-size: 12px; font-weight: 200;" fill="rgb(255, 255, 255)" stroke="none" stroke-width="1px">0</text><text x="0" y="151.71428571428572" dx="0em" dy="0.3em" style="text-anchor: end; visibility: hidden; font-family: Roboto, sans-serif; font-size: 12px; font-weight: 200;" fill="rgb(255, 255, 255)" stroke="none" stroke-width="1px">20</text><text x="0" y="139.07142857142856" dx="0em" dy="0.3em" style="text-anchor: end; visibility: inherit; font-family: Roboto, sans-serif; font-size: 12px; font-weight: 200;" fill="rgb(255, 255, 255)" stroke="none" stroke-width="1px">40</text><text x="0" y="126.42857142857143" dx="0em" dy="0.3em" style="text-anchor: end; visibility: hidden; font-family: Roboto, sans-serif; font-size: 12px; font-weight: 200;" fill="rgb(255, 255, 255)" stroke="none" stroke-width="1px">60</text><text x="0" y="113.78571428571428" dx="0em" dy="0.3em" style="text-anchor: end; visibility: inherit; font-family: Roboto, sans-serif; font-size: 12px; font-weight: 200;" fill="rgb(255, 255, 255)" stroke="none" stroke-width="1px">80</text><text x="0" y="101.14285714285714" dx="0em" dy="0.3em" style="text-anchor: end; visibility: hidden; font-family: Roboto, sans-serif; font-size: 12px; font-weight: 200;" fill="rgb(255, 255, 255)" stroke="none" stroke-width="1px">100</text><text x="0" y="88.5" dx="0em" dy="0.3em" style="text-anchor: end; visibility: inherit; font-family: Roboto, sans-serif; font-size: 12px; font-weight: 200;" fill="rgb(255, 255, 255)" stroke="none" stroke-width="1px">120</text><text x="0" y="75.85714285714286" dx="0em" dy="0.3em" style="text-anchor: end; visibility: hidden; font-family: Roboto, sans-serif; font-size: 12px; font-weight: 200;" fill="rgb(255, 255, 255)" stroke="none" stroke-width="1px">140</text><text x="0" y="63.21428571428571" dx="0em" dy="0.3em" style="text-anchor: end; visibility: inherit; font-family: Roboto, sans-serif; font-size: 12px; font-weight: 200;" fill="rgb(255, 255, 255)" stroke="none" stroke-width="1px">160</text><text x="0" y="50.57142857142857" dx="0em" dy="0.3em" style="text-anchor: end; visibility: hidden; font-family: Roboto, sans-serif; font-size: 12px; font-weight: 200;" fill="rgb(255, 255, 255)" stroke="none" stroke-width="1px">180</text><text x="0" y="37.92857142857143" dx="0em" dy="0.3em" style="text-anchor: end; visibility: inherit; font-family: Roboto, sans-serif; font-size: 12px; font-weight: 200;" fill="rgb(255, 255, 255)" stroke="none" stroke-width="1px">200</text><text x="0" y="25.285714285714295" dx="0em" dy="0.3em" style="text-anchor: end; visibility: hidden; font-family: Roboto, sans-serif; font-size: 12px; font-weight: 200;" fill="rgb(255, 255, 255)" stroke="none" stroke-width="1px">220</text><text x="0" y="12.642857142857137" dx="0em" dy="0.3em" style="text-anchor: end; visibility: inherit; font-family: Roboto, sans-serif; font-size: 12px; font-weight: 200;" fill="rgb(255, 255, 255)" stroke="none" stroke-width="1px">240</text><text x="0" y="0" dx="0em" dy="0.3em" style="text-anchor: end; visibility: hidden; font-family: Roboto, sans-serif; font-size: 12px; font-weight: 200;" fill="rgb(255, 255, 255)" stroke="none" stroke-width="1px">260</text></g><line x1="41.171875" y1="0" x2="41.171875" y2="177" fill="rgb(0, 0, 0)" stroke="rgb(204, 204, 204)" stroke-width="1px"></line></g></g><g transform="translate(41, 0)" clip-path="url(#clip_0)"><clipPath id="clip_0"><rect width="288" height="177"></rect></clipPath><g><g><g><line x1="0" y1="0" x2="0" y2="177" fill="rgb(0, 0, 0)" stroke="rgb(189, 189, 189)" stroke-width="1px" opacity="0.25"></line><line x1="20.630580357142858" y1="0" x2="20.630580357142858" y2="177" fill="rgb(0, 0, 0)" stroke="rgb(189, 189, 189)" stroke-width="1px" opacity="0.25"></line><line x1="41.261160714285715" y1="0" x2="41.261160714285715" y2="177" fill="rgb(0, 0, 0)" stroke="rgb(189, 189, 189)" stroke-width="1px" opacity="0.25"></line><line x1="61.89174107142858" y1="0" x2="61.89174107142858" y2="177" fill="rgb(0, 0, 0)" stroke="rgb(189, 189, 189)" stroke-width="1px" opacity="0.25"></line><line x1="82.52232142857143" y1="0" x2="82.52232142857143" y2="177" fill="rgb(0, 0, 0)" stroke="rgb(189, 189, 189)" stroke-width="1px" opacity="0.25"></line><line x1="103.15290178571428" y1="0" x2="103.15290178571428" y2="177" fill="rgb(0, 0, 0)" stroke="rgb(189, 189, 189)" stroke-width="1px" opacity="0.25"></line><line x1="123.78348214285712" y1="0" x2="123.78348214285712" y2="177" fill="rgb(0, 0, 0)" stroke="rgb(189, 189, 189)" stroke-width="1px" opacity="0.25"></line><line x1="144.41406249999997" y1="0" x2="144.41406249999997" y2="177" fill="rgb(0, 0, 0)" stroke="rgb(189, 189, 189)" stroke-width="1px" opacity="0.25"></line><line x1="165.0446428571428" y1="0" x2="165.0446428571428" y2="177" fill="rgb(0, 0, 0)" stroke="rgb(189, 189, 189)" stroke-width="1px" opacity="0.25"></line><line x1="185.6752232142857" y1="0" x2="185.6752232142857" y2="177" fill="rgb(0, 0, 0)" stroke="rgb(189, 189, 189)" stroke-width="1px" opacity="0.25"></line><line x1="206.30580357142856" y1="0" x2="206.30580357142856" y2="177" fill="rgb(0, 0, 0)" stroke="rgb(189, 189, 189)" stroke-width="1px" opacity="0.25"></line><line x1="226.93638392857142" y1="0" x2="226.93638392857142" y2="177" fill="rgb(0, 0, 0)" stroke="rgb(189, 189, 189)" stroke-width="1px" opacity="0.25"></line><line x1="247.5669642857143" y1="0" x2="247.5669642857143" y2="177" fill="rgb(0, 0, 0)" stroke="rgb(189, 189, 189)" stroke-width="1px" opacity="0.25"></line><line x1="268.1975446428571" y1="0" x2="268.1975446428571" y2="177" fill="rgb(0, 0, 0)" stroke="rgb(189, 189, 189)" stroke-width="1px" opacity="0.25"></line><line x1="288.828125" y1="0" x2="288.828125" y2="177" fill="rgb(0, 0, 0)" stroke="rgb(189, 189, 189)" stroke-width="1px" opacity="0.25"></line></g><g><line x1="0" y1="177" x2="288.828125" y2="177" fill="rgb(0, 0, 0)" stroke="rgb(189, 189, 189)" stroke-width="1px" opacity="0.25"></line><line x1="0" y1="164.35714285714286" x2="288.828125" y2="164.35714285714286" fill="rgb(0, 0, 0)" stroke="rgb(189, 189, 189)" stroke-width="1px" opacity="0.25"></line><line x1="0" y1="151.71428571428572" x2="288.828125" y2="151.71428571428572" fill="rgb(0, 0, 0)" stroke="rgb(189, 189, 189)" stroke-width="1px" opacity="0.25"></line><line x1="0" y1="139.07142857142856" x2="288.828125" y2="139.07142857142856" fill="rgb(0, 0, 0)" stroke="rgb(189, 189, 189)" stroke-width="1px" opacity="0.25"></line><line x1="0" y1="126.42857142857143" x2="288.828125" y2="126.42857142857143" fill="rgb(0, 0, 0)" stroke="rgb(189, 189, 189)" stroke-width="1px" opacity="0.25"></line><line x1="0" y1="113.78571428571428" x2="288.828125" y2="113.78571428571428" fill="rgb(0, 0, 0)" stroke="rgb(189, 189, 189)" stroke-width="1px" opacity="0.25"></line><line x1="0" y1="101.14285714285714" x2="288.828125" y2="101.14285714285714" fill="rgb(0, 0, 0)" stroke="rgb(189, 189, 189)" stroke-width="1px" opacity="0.25"></line><line x1="0" y1="88.5" x2="288.828125" y2="88.5" fill="rgb(0, 0, 0)" stroke="rgb(189, 189, 189)" stroke-width="1px" opacity="0.25"></line><line x1="0" y1="75.85714285714286" x2="288.828125" y2="75.85714285714286" fill="rgb(0, 0, 0)" stroke="rgb(189, 189, 189)" stroke-width="1px" opacity="0.25"></line><line x1="0" y1="63.21428571428571" x2="288.828125" y2="63.21428571428571" fill="rgb(0, 0, 0)" stroke="rgb(189, 189, 189)" stroke-width="1px" opacity="0.25"></line><line x1="0" y1="50.57142857142857" x2="288.828125" y2="50.57142857142857" fill="rgb(0, 0, 0)" stroke="rgb(189, 189, 189)" stroke-width="1px" opacity="0.25"></line><line x1="0" y1="37.92857142857143" x2="288.828125" y2="37.92857142857143" fill="rgb(0, 0, 0)" stroke="rgb(189, 189, 189)" stroke-width="1px" opacity="0.25"></line><line x1="0" y1="25.285714285714295" x2="288.828125" y2="25.285714285714295" fill="rgb(0, 0, 0)" stroke="rgb(189, 189, 189)" stroke-width="1px" opacity="0.25"></line><line x1="0" y1="12.642857142857137" x2="288.828125" y2="12.642857142857137" fill="rgb(0, 0, 0)" stroke="rgb(189, 189, 189)" stroke-width="1px" opacity="0.25"></line><line x1="0" y1="0" x2="288.828125" y2="0" fill="rgb(0, 0, 0)" stroke="rgb(189, 189, 189)" stroke-width="1px" opacity="0.25"></line></g></g></g><g><g><line x1="0" y1="164.35714285714286" x2="288.828125" y2="164.35714285714286" fill="rgb(0, 0, 0)" stroke="rgb(153, 153, 153)" stroke-width="1.5px"></line></g></g><g><g><line x1="20.630580357142858" y1="0" x2="20.630580357142858" y2="177" fill="rgb(0, 0, 0)" stroke="rgb(153, 153, 153)" stroke-width="1.5px"></line></g></g><g><g><g><g><g><path stroke="rgb(0, 119, 187)" stroke-width="2px" d="M20.630580357142858,6.872730527605326L26.16186817956349,0.9202583476575324L30.84065457589286,11.348599636600854L34.90677004278274,32.87900367565427L39.57908072916666,25.86160564187755L43.31608113219246,13.936680609273935L48.01893653893848,9.651845212029839L52.93669382440476,14.780035700219216L57.636282722594245,8.513733453114332L62.32572825210813,27.246356943084727L66.32525279017857,60.47843017211503L70.76592790488591,78.71652295325005L75.46970022631449,92.83406957069319L80.38688444010417,98.96654218554545L85.07380845424106,113.62189773717476L89.51597355530754,119.29007575058208L94.46060790240574,123.94992204578544L99.15486723400298,129.8862035655329L103.84780850074404,135.96360445196999L108.55175274367559,139.68923924424757L112.53689318266369,142.26068721145612L118.45437400793648,144.2818490840592L124.48750069754463,145.76716524342203L132.59228149801584,147.2849482038057L140.47442395213292,148.4089577842694L145.9419288969494,149.01409616527738L150.41406564670137,149.68154349876343L156.1419743613591,150.24662883614752L161.7940083860367,150.68145736207063L167.40357779947917,150.3505958586589L172.3520517268105,150.94780544794045L180.4537952473958,150.81153446473294L185.16776824466766,150.73814016204972L189.1487825675843,150.65079746820925L193.14246177455357,150.85774030409172L197.8408472222222,150.84928078081848L202.29051956225194,150.97385279958607L206.98374736483134,151.48241907122886L215.28491982886905,151.4195986840113L220.0284060174851,151.71634923275985L224.71991460503472,152.04053728077142L232.80246022445436,152.2948409237737L240.93755651661706,152.06634351653454L245.66173018973214,151.53114841208176L250.38928498573907,151.33849748675885L254.82331246899804,150.7160047952919L259.53608201574895,150.15814833556954L264.23297747705857,149.12360932284412L268.9323944537451,148.60236580273815L273.84350410776284,149.57528473555155" style="fill: none;" fill="none"></path></g><g><path stroke="rgb(255, 112, 67)" stroke-width="2px" d="M20.630580357142858,-12.14388329642159L26.16186817956349,10.962222079483036L30.840711883060514,30.208684418695448L34.90677004278274,46.01184424979659L39.57908072916666,59.1840291728576L43.31608113219246,71.31635305282393L48.01893653893848,83.1248575515133L52.93669382440476,94.5215730966523L57.636340029761904,104.54555335553974L62.32572825210813,113.07306398306055L66.3251954830109,120.27919697784209L70.76592790488591,126.19527961711437L75.46970022631449,131.23726653817465L80.38688444010417,135.42743282715801L85.07380845424106,138.88304002040567L89.51597355530754,141.71998860602218L94.4606652095734,144.23190239499544L99.15486723400298,146.54814679067803L103.84780850074404,148.70913686721943L108.55175274367559,150.70410545842574L112.53689318266369,152.42335872784713L118.45437400793648,153.91975904214883L124.48750069754463,155.21693434600797L132.59228149801584,156.35998711408362L140.47448125930057,157.379548635481L145.9419288969494,158.24009918637395L150.41406564670137,159.04212298314025L156.14203166852676,159.74908341221538L161.79406569320432,160.37259188024677L167.40357779947917,160.92097287777864L172.3520517268105,161.29137077805325L180.4537952473958,161.67286220501538L185.16776824466766,161.8580717128054L189.1487825675843,162.01509278709932L193.1424044673859,162.2342075513295L197.8408472222222,162.49536192444765L202.29057686941962,162.70975077644928L206.98374736483134,162.91193940579055L215.28491982886905,163.0802585345668L220.02118531436008,163.23853619954892L224.71991460503472,163.4164011334141L232.80251753162204,163.56485709120585L240.93755651661706,163.60721426632747L245.66178749689982,163.66242222950365L250.38928498573907,163.6600001032123L254.82331246899804,163.49942340662196L259.53608201574895,163.27015423714343L264.2330347842262,163.107578217914L268.9323944537451,163.01918110461042L273.84350410776284,163.1438521746039" style="fill: none;" fill="none"></path></g></g></g></g><g opacity="0.2"><g><g><g><path stroke="rgb(0, 119, 187)" stroke-width="2px" d="M20.630580357142858,6.872730527605326L26.16186817956349,-2.8238466535295736L30.84065457589286,22.03390568324499L34.90677004278274,60.29795575823103L39.57908072916666,15.826508985246925L43.31608113219246,-4.290442003522607L48.01893653893848,2.837157767159599L52.93669382440476,23.13577651977539L57.636282722594245,-1.8499554225376786L62.32572825210813,58.516504342215406L66.32525279017857,116.2744922365461L70.76592790488591,109.44916567121234L75.46970022631449,116.67740903581893L80.38688444010417,109.33856285640171L85.07380845424106,138.43114471435547L89.51597355530754,128.89083325522287L94.46060790240574,131.84556529181341L99.15486723400298,139.94688025883266L103.84780850074404,146.26489062309264L108.55175274367559,146.00480303764343L112.53689318266369,146.6199561391558L118.45437400793648,147.70836032458715L124.48750069754463,148.2853030545371L132.59228149801584,149.85816425595965L140.47442395213292,150.31459559031896L145.9419288969494,150.0400490488325L150.41406564670137,150.81313899585177L156.1419743613591,151.20468106269837L161.7940083860367,151.41867168290275L167.40357779947917,149.78964819226945L172.3520517268105,151.96032428741455L180.4537952473958,150.5804983479636L185.16776824466766,150.61370620046344L189.1487825675843,150.5027151448386L193.14246177455357,151.20859481947764L197.8408472222222,150.83493835585458L202.29051956225194,151.18505440439498L206.98374736483134,152.34465134484427L215.28491982886905,151.31309188434057L220.0284060174851,152.21946538516454L224.71991460503472,152.59017145974295L232.80246022445436,152.72599184172495L240.93755651661706,151.67894494874136L245.66173018973214,150.6237691129957L250.38928498573907,151.01187368120466L254.82331246899804,149.6606196131025L259.53608201574895,149.21234857014247L264.23297747705857,147.36963347707476L268.9323944537451,147.718640266146L273.84350410776284,151.22478880201066" style="fill: none;" fill="none"></path></g><g><path stroke="rgb(255, 112, 67)" stroke-width="2px" d="M20.630580357142858,-12.14388329642159L26.16186817956349,25.495962360927045L30.840711883060514,49.92939883640833L34.90677004278274,66.13715547834123L39.57908072916666,78.02066181727817L43.31608113219246,89.86048262459892L48.01893653893848,101.9053379876273L52.93669382440476,113.09108636038643L57.636340029761904,121.12397689819336L62.32572825210813,127.30793687275478L66.3251954830109,132.3781665802002L70.76592790488591,136.1643512862069L75.46970022631449,139.75275502886092L80.38688444010417,142.5143770490374L85.07380845424106,144.73284775870187L89.51597355530754,146.52521091188703L94.4606652095734,148.48808894838606L99.15486723400298,150.47366580963134L103.84780850074404,152.3720476422991L108.55175274367559,154.0859053679875L112.53689318266369,155.33793738228934L118.45437400793648,156.4566327912467L124.48750069754463,157.41610666343144L132.59228149801584,158.29789378983634L140.47448125930057,159.10810594899314L145.9419288969494,159.69907839979444L150.41406564670137,160.40188048226491L156.14203166852676,160.94767231260028L161.79406569320432,161.4296967949186L167.40357779947917,161.85070642999239L172.3520517268105,161.91934939537728L180.4537952473958,162.31964918630464L185.16776824466766,162.17207909396717L189.1487825675843,162.28130904947008L193.1424044673859,162.60569856762885L197.8408472222222,162.9381276547909L202.29057686941962,163.07322942955153L206.98374736483134,163.25473359269756L215.28491982886905,163.36562977348055L220.02118531436008,163.50688296471324L224.71991460503472,163.7179565038L232.80251753162204,163.81655196164334L240.93755651661706,163.67902737430165L245.66178749689982,163.75602279220308L250.38928498573907,163.6558935872146L254.82331246899804,163.22717881883895L259.53608201574895,162.88144720877918L264.2330347842262,162.83194394281932L268.9323944537451,162.8693110661847L273.84350410776284,163.3552217245102" style="fill: none;" fill="none"></path></g></g></g></g></g></g><g transform="translate(41, 177)" clip-path="url(#clip_1)"><clipPath id="clip_1"><rect width="288" height="23"></rect></clipPath><g><g><line x1="0" y1="0" x2="0" y2="5" style="visibility: inherit;" fill="rgb(0, 0, 0)" stroke="rgb(204, 204, 204)" stroke-width="1px"></line><line x1="20.630580357142858" y1="0" x2="20.630580357142858" y2="5" style="visibility: inherit;" fill="rgb(0, 0, 0)" stroke="rgb(204, 204, 204)" stroke-width="1px"></line><line x1="41.261160714285715" y1="0" x2="41.261160714285715" y2="5" style="visibility: inherit;" fill="rgb(0, 0, 0)" stroke="rgb(204, 204, 204)" stroke-width="1px"></line><line x1="61.89174107142858" y1="0" x2="61.89174107142858" y2="5" style="visibility: inherit;" fill="rgb(0, 0, 0)" stroke="rgb(204, 204, 204)" stroke-width="1px"></line><line x1="82.52232142857143" y1="0" x2="82.52232142857143" y2="5" style="visibility: inherit;" fill="rgb(0, 0, 0)" stroke="rgb(204, 204, 204)" stroke-width="1px"></line><line x1="103.15290178571428" y1="0" x2="103.15290178571428" y2="5" style="visibility: inherit;" fill="rgb(0, 0, 0)" stroke="rgb(204, 204, 204)" stroke-width="1px"></line><line x1="123.78348214285712" y1="0" x2="123.78348214285712" y2="5" style="visibility: inherit;" fill="rgb(0, 0, 0)" stroke="rgb(204, 204, 204)" stroke-width="1px"></line><line x1="144.41406249999997" y1="0" x2="144.41406249999997" y2="5" style="visibility: inherit;" fill="rgb(0, 0, 0)" stroke="rgb(204, 204, 204)" stroke-width="1px"></line><line x1="165.0446428571428" y1="0" x2="165.0446428571428" y2="5" style="visibility: inherit;" fill="rgb(0, 0, 0)" stroke="rgb(204, 204, 204)" stroke-width="1px"></line><line x1="185.6752232142857" y1="0" x2="185.6752232142857" y2="5" style="visibility: inherit;" fill="rgb(0, 0, 0)" stroke="rgb(204, 204, 204)" stroke-width="1px"></line><line x1="206.30580357142856" y1="0" x2="206.30580357142856" y2="5" style="visibility: inherit;" fill="rgb(0, 0, 0)" stroke="rgb(204, 204, 204)" stroke-width="1px"></line><line x1="226.93638392857142" y1="0" x2="226.93638392857142" y2="5" style="visibility: inherit;" fill="rgb(0, 0, 0)" stroke="rgb(204, 204, 204)" stroke-width="1px"></line><line x1="247.5669642857143" y1="0" x2="247.5669642857143" y2="5" style="visibility: inherit;" fill="rgb(0, 0, 0)" stroke="rgb(204, 204, 204)" stroke-width="1px"></line><line x1="268.1975446428571" y1="0" x2="268.1975446428571" y2="5" style="visibility: inherit;" fill="rgb(0, 0, 0)" stroke="rgb(204, 204, 204)" stroke-width="1px"></line><line x1="288.828125" y1="0" x2="288.828125" y2="5" style="visibility: inherit;" fill="rgb(0, 0, 0)" stroke="rgb(204, 204, 204)" stroke-width="1px"></line></g><g transform="translate(0, 8)"><text x="0" y="0" dx="0em" dy="0.95em" style="text-anchor: middle; visibility: hidden; font-family: Roboto, sans-serif; font-size: 12px; font-weight: 200;" fill="rgb(255, 255, 255)" stroke="none" stroke-width="1px">-0.1</text><text x="20.630580357142858" y="0" dx="0em" dy="0.95em" style="text-anchor: middle; visibility: inherit; font-family: Roboto, sans-serif; font-size: 12px; font-weight: 200;" fill="rgb(255, 255, 255)" stroke="none" stroke-width="1px">0</text><text x="41.261160714285715" y="0" dx="0em" dy="0.95em" style="text-anchor: middle; visibility: hidden; font-family: Roboto, sans-serif; font-size: 12px; font-weight: 200;" fill="rgb(255, 255, 255)" stroke="none" stroke-width="1px">0.1</text><text x="61.89174107142858" y="0" dx="0em" dy="0.95em" style="text-anchor: middle; visibility: inherit; font-family: Roboto, sans-serif; font-size: 12px; font-weight: 200;" fill="rgb(255, 255, 255)" stroke="none" stroke-width="1px">0.2</text><text x="82.52232142857143" y="0" dx="0em" dy="0.95em" style="text-anchor: middle; visibility: hidden; font-family: Roboto, sans-serif; font-size: 12px; font-weight: 200;" fill="rgb(255, 255, 255)" stroke="none" stroke-width="1px">0.3</text><text x="103.15290178571428" y="0" dx="0em" dy="0.95em" style="text-anchor: middle; visibility: inherit; font-family: Roboto, sans-serif; font-size: 12px; font-weight: 200;" fill="rgb(255, 255, 255)" stroke="none" stroke-width="1px">0.4</text><text x="123.78348214285712" y="0" dx="0em" dy="0.95em" style="text-anchor: middle; visibility: hidden; font-family: Roboto, sans-serif; font-size: 12px; font-weight: 200;" fill="rgb(255, 255, 255)" stroke="none" stroke-width="1px">0.5</text><text x="144.41406249999997" y="0" dx="0em" dy="0.95em" style="text-anchor: middle; visibility: inherit; font-family: Roboto, sans-serif; font-size: 12px; font-weight: 200;" fill="rgb(255, 255, 255)" stroke="none" stroke-width="1px">0.6</text><text x="165.0446428571428" y="0" dx="0em" dy="0.95em" style="text-anchor: middle; visibility: hidden; font-family: Roboto, sans-serif; font-size: 12px; font-weight: 200;" fill="rgb(255, 255, 255)" stroke="none" stroke-width="1px">0.7</text><text x="185.6752232142857" y="0" dx="0em" dy="0.95em" style="text-anchor: middle; visibility: inherit; font-family: Roboto, sans-serif; font-size: 12px; font-weight: 200;" fill="rgb(255, 255, 255)" stroke="none" stroke-width="1px">0.8</text><text x="206.30580357142856" y="0" dx="0em" dy="0.95em" style="text-anchor: middle; visibility: hidden; font-family: Roboto, sans-serif; font-size: 12px; font-weight: 200;" fill="rgb(255, 255, 255)" stroke="none" stroke-width="1px">0.9</text><text x="226.93638392857142" y="0" dx="0em" dy="0.95em" style="text-anchor: middle; visibility: inherit; font-family: Roboto, sans-serif; font-size: 12px; font-weight: 200;" fill="rgb(255, 255, 255)" stroke="none" stroke-width="1px">1</text><text x="247.5669642857143" y="0" dx="0em" dy="0.95em" style="text-anchor: middle; visibility: hidden; font-family: Roboto, sans-serif; font-size: 12px; font-weight: 200;" fill="rgb(255, 255, 255)" stroke="none" stroke-width="1px">1.1</text><text x="268.1975446428571" y="0" dx="0em" dy="0.95em" style="text-anchor: middle; visibility: inherit; font-family: Roboto, sans-serif; font-size: 12px; font-weight: 200;" fill="rgb(255, 255, 255)" stroke="none" stroke-width="1px">1.2</text><text x="288.828125" y="0" dx="0em" dy="0.95em" style="text-anchor: middle; visibility: hidden; font-family: Roboto, sans-serif; font-size: 12px; font-weight: 200;" fill="rgb(255, 255, 255)" stroke="none" stroke-width="1px">1.3</text></g><line x1="0" y1="0" x2="288.828125" y2="0" fill="rgb(0, 0, 0)" stroke="rgb(204, 204, 204)" stroke-width="1px"></line></g></g></g></g></svg>